<svg height="512pt" viewBox="-19 0 512 512" width="512pt" xmlns="http://www.w3.org/2000/svg"><path d="m59.546875 481.070312v2.503907c0 15.636719 12.226563 28.425781 27.171875 28.425781h300.558594c14.945312 0 27.171875-12.789062 27.171875-28.425781v-2.503907zm0 0" fill="#d7f7ff"/><path d="m101.226562 483.574219v-2.503907h-41.679687v2.503907c0 15.636719 12.226563 28.425781 27.171875 28.425781h41.675781c-14.945312 0-27.167969-12.789062-27.167969-28.425781zm0 0" fill="#b7e9f9"/><path d="m237 46.515625c-4.207031 0-7.613281-3.40625-7.613281-7.613281v-11.894532c0-14.890624 12.117187-27.007812 27.007812-27.007812 4.203125 0 7.613281 3.40625 7.613281 7.613281 0 4.203125-3.410156 7.609375-7.613281 7.609375-6.496093 0-11.785156 5.289063-11.785156 11.785156v11.898438c0 4.203125-3.40625 7.609375-7.609375 7.609375zm0 0" fill="#9c2d20"/><path d="m397.40625 438.53125c2.078125-23.761719 10.3125-84.234375 42.410156-149.121094-1.757812.246094-3.550781.386719-5.375.386719-11.464844 0-21.792968-5.035156-29.015625-13.074219-2.117187-2.355468-5.664062-2.355468-7.78125 0-7.222656 8.039063-17.546875 13.074219-29.015625 13.074219s-21.792968-5.035156-29.019531-13.074219c-2.113281-2.355468-5.664063-2.355468-7.777344 0-7.226562 8.039063-17.550781 13.074219-29.019531 13.074219s-21.792969-5.035156-29.015625-13.074219c-2.117187-2.355468-5.664063-2.355468-7.78125 0-7.222656 8.039063-17.550781 13.074219-29.019531 13.074219-11.464844 0-21.792969-5.035156-29.015625-13.074219-2.117188-2.355468-5.664063-2.355468-7.78125 0-7.222657 8.039063-17.546875 13.074219-29.015625 13.074219s-21.792969-5.035156-29.019532-13.074219c-2.117187-2.355468-5.664062-2.355468-7.777343 0-7.226563 8.039063-17.550781 13.074219-29.019531 13.074219s-21.792969-5.035156-29.015626-13.074219c-2.117187-2.355468-5.664062-2.355468-7.78125 0-7.222656 8.039063-17.550781 13.074219-29.019531 13.074219-1.820312 0-3.613281-.140625-5.371093-.386719 32.097656 64.886719 40.332031 125.359375 42.410156 149.121094zm0 0" fill="#d3843d"/><path d="m65.367188 294.332031c-1.015626-2.128906.566406-4.539062 2.921874-4.535156h.058594c6.6875 0 12.984375-1.726563 18.511719-4.75-3.949219-2.160156-7.507813-4.980469-10.519531-8.335937-2.089844-2.328126-5.675782-2.316407-7.769532.011718-7.222656 8.039063-17.546874 13.074219-29.015624 13.074219-1.824219 0-3.613282-.140625-5.371094-.386719 32.09375 64.886719 40.332031 125.359375 42.410156 149.121094h28.789062c-2.023437-23.160156-9.898437-81.195312-40.015624-144.199219zm0 0" fill="#c16a33"/><path d="m429.214844 436.136719h-384.433594c-9.261719 0-16.835938 7.578125-16.835938 16.839843v12.625c0 9.261719 7.574219 16.835938 16.835938 16.835938h384.433594c9.261718 0 16.839844-7.574219 16.839844-16.835938v-12.625c0-9.261718-7.578126-16.839843-16.839844-16.839843zm0 0" fill="#b7e9f9"/><path d="m429.214844 453.683594h-384.433594c-6.34375 0-11.894531-3.558594-14.761719-8.773438-1.320312 2.398438-2.074219 5.148438-2.074219 8.0625v12.628906c0 9.257813 7.574219 16.835938 16.835938 16.835938h384.433594c9.261718 0 16.839844-7.574219 16.839844-16.835938v-12.628906c0-2.914062-.753907-5.664062-2.074219-8.0625-2.871094 5.214844-8.421875 8.773438-14.765625 8.773438zm0 0" fill="#87cee9"/><path d="m382.332031 149.511719c-6.945312-.789063-13.710937-.566407-20.191406.511719-4.53125.753906-9.140625-1.078126-11.722656-4.898438-20.855469-30.890625-53.847657-52.8125-92.085938-58.824219-5.457031 5.496094-13 8.898438-21.332031 8.898438-8.335938 0-15.878906-3.402344-21.335938-8.898438-38.238281 6.015625-71.226562 27.9375-92.085937 58.824219-2.578125 3.820312-7.191406 5.652344-11.71875 4.898438-6.484375-1.078126-13.253906-1.300782-20.207031-.507813-34.140625 3.890625-61.148438 31.726563-64.363282 65.953125 2.746094-.902344 5.621094-1.511719 8.585938-1.78125 12.957031-1.175781 24.765625 3.941406 32.753906 12.652344 2.089844 2.277344 5.625 2.214844 7.71875-.058594 7.222656-7.847656 17.550782-12.761719 29.023438-12.761719 11.464844 0 21.792968 4.910157 29.015625 12.757813 2.117187 2.296875 5.664062 2.296875 7.78125 0 7.222656-7.84375 17.546875-12.757813 29.015625-12.757813s21.796875 4.910157 29.019531 12.757813c2.117187 2.296875 5.664063 2.296875 7.78125 0 7.222656-7.84375 17.546875-12.757813 29.015625-12.757813s21.792969 4.910157 29.019531 12.757813c2.113281 2.296875 5.664063 2.296875 7.777344 0 7.222656-7.84375 17.550781-12.757813 29.019531-12.757813 11.464844 0 21.792969 4.910157 29.015625 12.757813 2.117188 2.296875 5.664063 2.296875 7.78125 0 7.222657-7.84375 17.546875-12.757813 29.015625-12.757813 11.472656 0 21.800782 4.914063 29.023438 12.761719 2.09375 2.273438 5.628906 2.335938 7.71875.058594 7.988281-8.714844 19.796875-13.828125 32.75-12.652344 2.96875.269531 5.84375.878906 8.589844 1.78125-3.21875-34.230469-30.234376-62.070312-64.378907-65.957031zm0 0" fill="#ffd782"/><path d="m128.765625 153.925781c6.949219-.847656 13.722656-.609375 20.203125.546875 4.53125.808594 9.140625-1.152344 11.722656-5.238281 15.996094-25.347656 39.140625-45.042969 66.308594-55.75-4.308594-1.523437-8.175781-4-11.335938-7.1875-38.238281 6.015625-71.226562 27.9375-92.085937 58.828125-2.578125 3.820312-7.191406 5.652344-11.71875 4.898438-6.484375-1.078126-13.253906-1.300782-20.207031-.511719-34.136719 3.894531-61.148438 31.730469-64.363282 65.957031 2.746094-.90625 5.621094-1.511719 8.585938-1.78125 10.9375-.992188 21.042969 2.507812 28.738281 8.859375 3.984375-35.722656 30.617188-64.53125 64.152344-68.621094zm0 0" fill="#fdbd40"/><path d="m267.613281 65.460938c0 16.90625-13.707031 30.613281-30.613281 30.613281-16.910156 0-30.617188-13.707031-30.617188-30.613281 0-16.910157 13.707032-30.617188 30.617188-30.617188 16.90625 0 30.613281 13.707031 30.613281 30.617188zm0 0" fill="#ea5471"/><path d="m241.90625 65.460938c0-10.285157 5.074219-19.378907 12.851562-24.929688-5.007812-3.578125-11.136718-5.6875-17.757812-5.6875-16.910156 0-30.617188 13.707031-30.617188 30.617188 0 16.910156 13.707032 30.613281 30.617188 30.613281 6.621094 0 12.75-2.109375 17.757812-5.683594-7.777343-5.550781-12.851562-14.644531-12.851562-24.929687zm0 0" fill="#e2385e"/><path d="m473.902344 249.5c-1.328125-19.175781-16.636719-34.84375-35.78125-36.570312-12.957032-1.171876-24.761719 3.914062-32.753906 12.574218-2.085938 2.265625-5.625 2.203125-7.714844-.058594-7.226563-7.800781-17.550782-12.683593-29.023438-12.683593-11.46875 0-21.792968 4.882812-29.015625 12.679687-2.117187 2.285156-5.664062 2.285156-7.78125 0-7.222656-7.796875-17.550781-12.679687-29.015625-12.679687-11.46875 0-21.796875 4.882812-29.019531 12.679687-2.113281 2.285156-5.664063 2.285156-7.777344 0-7.226562-7.796875-17.550781-12.679687-29.019531-12.679687s-21.792969 4.882812-29.015625 12.679687c-2.117187 2.285156-5.664063 2.285156-7.78125 0-7.222656-7.796875-17.546875-12.679687-29.015625-12.679687s-21.796875 4.882812-29.019531 12.679687c-2.117188 2.285156-5.664063 2.285156-7.777344 0-7.226563-7.796875-17.550781-12.679687-29.019531-12.679687-11.472656 0-21.796875 4.882812-29.023438 12.683593-2.09375 2.261719-5.628906 2.324219-7.71875.058594-7.988281-8.660156-19.796875-13.746094-32.75-12.574218-19.144531 1.726562-34.453125 17.394531-35.7812498 36.570312-1.6015622 23.117188 16.6796878 42.371094 39.4570318 42.371094 11.46875 0 21.792968-4.882813 29.019531-12.679688 2.113281-2.285156 5.664062-2.285156 7.777343 0 7.226563 7.796875 17.550782 12.679688 29.019532 12.679688s21.792968-4.882813 29.019531-12.679688c2.113281-2.285156 5.660156-2.285156 7.777344 0 7.222656 7.796875 17.550781 12.679688 29.019531 12.679688 11.464844 0 21.792969-4.882813 29.015625-12.679688 2.117187-2.285156 5.664063-2.285156 7.78125 0 7.222656 7.796875 17.546875 12.679688 29.015625 12.679688s21.792969-4.882813 29.019531-12.679688c2.113281-2.285156 5.664063-2.285156 7.777344 0 7.226563 7.796875 17.550781 12.679688 29.019531 12.679688 11.464844 0 21.792969-4.882813 29.015625-12.679688 2.117188-2.285156 5.664063-2.285156 7.78125 0 7.222657 7.796875 17.546875 12.679688 29.015625 12.679688s21.792969-4.882813 29.015625-12.679688c2.117188-2.285156 5.664063-2.285156 7.78125 0 7.222657 7.796875 17.550781 12.679688 29.015625 12.679688 22.777344 0 41.058594-19.25 39.460938-42.371094zm0 0" fill="#fdbd40"/><path d="m469.777344 234.570312c-6.507813 12.914063-19.882813 21.777344-35.332032 21.777344-11.46875 0-21.796874-4.878906-29.019531-12.679687-2.117187-2.28125-5.664062-2.28125-7.78125 0-7.222656 7.800781-17.546875 12.679687-29.015625 12.679687s-21.792968-4.878906-29.015625-12.679687c-2.117187-2.28125-5.664062-2.28125-7.78125 0-7.222656 7.800781-17.550781 12.679687-29.019531 12.679687-11.464844 0-21.792969-4.878906-29.015625-12.679687-2.117187-2.28125-5.664063-2.28125-7.78125 0-7.222656 7.800781-17.546875 12.679687-29.015625 12.679687s-21.792969-4.878906-29.015625-12.679687c-2.117187-2.28125-5.664063-2.28125-7.78125 0-7.222656 7.800781-17.550781 12.679687-29.019531 12.679687s-21.792969-4.878906-29.015625-12.679687c-2.117188-2.28125-5.664063-2.28125-7.78125 0-7.222657 7.800781-17.546875 12.679687-29.015625 12.679687s-21.796875-4.878906-29.019532-12.679687c-2.117187-2.28125-5.664062-2.28125-7.78125 0-7.222656 7.800781-17.546874 12.679687-29.015624 12.679687-15.449219 0-28.824219-8.863281-35.332032-21.777344-2.308594 4.558594-3.757812 9.609376-4.1249998 14.929688-1.6015622 23.121094 16.6796878 42.371094 39.4570318 42.371094 11.46875 0 21.792968-4.882813 29.015624-12.679688 2.117188-2.285156 5.664063-2.285156 7.78125 0 7.222657 7.796875 17.550782 12.679688 29.019532 12.679688 11.464844 0 21.792968-4.882813 29.015625-12.679688 2.117187-2.285156 5.664062-2.285156 7.78125 0 7.222656 7.796875 17.546875 12.679688 29.015625 12.679688s21.796875-4.882813 29.019531-12.679688c2.117187-2.285156 5.664063-2.285156 7.78125 0 7.222656 7.796875 17.546875 12.679688 29.015625 12.679688s21.792969-4.882813 29.015625-12.679688c2.117187-2.285156 5.664063-2.285156 7.78125 0 7.222656 7.796875 17.550781 12.679688 29.015625 12.679688 11.46875 0 21.796875-4.882813 29.019531-12.679688 2.117188-2.285156 5.664063-2.285156 7.78125 0 7.222657 7.796875 17.546875 12.679688 29.015625 12.679688s21.792969-4.882813 29.015625-12.679688c2.117188-2.285156 5.664063-2.285156 7.78125 0 7.222657 7.796875 17.550781 12.679688 29.019531 12.679688 22.773438 0 41.054688-19.25 39.457032-42.371094-.371094-5.320312-1.820313-10.371094-4.125-14.929688zm0 0" fill="#f2aa2a"/><g fill="#c16a33"><path d="m217.601562 411.652344c-4.203124 0-7.609374-3.40625-7.609374-7.609375v-78.003907c0-4.203124 3.40625-7.609374 7.609374-7.609374 4.207032 0 7.613282 3.40625 7.613282 7.609374v78.003907c0 4.203125-3.410156 7.609375-7.613282 7.609375zm0 0"/><path d="m256.394531 411.652344c-4.203125 0-7.613281-3.40625-7.613281-7.609375v-78.003907c0-4.203124 3.410156-7.609374 7.613281-7.609374s7.613281 3.40625 7.613281 7.609374v78.003907c0 4.203125-3.410156 7.609375-7.613281 7.609375zm0 0"/><path d="m295.1875 411.652344c-4.203125 0-7.613281-3.40625-7.613281-7.609375v-78.003907c0-4.203124 3.410156-7.609374 7.613281-7.609374s7.613281 3.40625 7.613281 7.609374v78.003907c0 4.203125-3.410156 7.609375-7.613281 7.609375zm0 0"/><path d="m333.980469 411.652344c-4.203125 0-7.613281-3.40625-7.613281-7.609375v-78.003907c0-4.203124 3.410156-7.609374 7.613281-7.609374s7.613281 3.40625 7.613281 7.609374v78.003907c0 4.203125-3.410156 7.609375-7.613281 7.609375zm0 0"/><path d="m372.773438 397.648438c-4.203126 0-7.613282-3.410157-7.613282-7.613282v-63.996094c0-4.203124 3.410156-7.609374 7.613282-7.609374 4.203124 0 7.609374 3.40625 7.609374 7.609374v63.996094c0 4.203125-3.40625 7.613282-7.609374 7.613282zm0 0"/><path d="m101.226562 397.648438c-4.207031 0-7.613281-3.410157-7.613281-7.613282v-63.996094c0-4.203124 3.40625-7.609374 7.613281-7.609374 4.203126 0 7.609376 3.40625 7.609376 7.609374v63.996094c0 4.203125-3.40625 7.613282-7.609376 7.613282zm0 0"/><path d="m140.015625 411.652344c-4.203125 0-7.609375-3.40625-7.609375-7.609375v-78.003907c0-4.203124 3.40625-7.609374 7.609375-7.609374 4.207031 0 7.613281 3.40625 7.613281 7.609374v78.003907c0 4.203125-3.40625 7.609375-7.613281 7.609375zm0 0"/><path d="m178.808594 411.652344c-4.203125 0-7.609375-3.40625-7.609375-7.609375v-78.003907c0-4.203124 3.40625-7.609374 7.609375-7.609374 4.207031 0 7.613281 3.40625 7.613281 7.609374v78.003907c0 4.203125-3.40625 7.609375-7.613281 7.609375zm0 0"/></g></svg>